<svg viewBox="0 0 80 79" fill="none" xmlns="http://www.w3.org/2000/svg">
<path fill-rule="evenodd" clip-rule="evenodd" d="M36 0.666016H44L41.3333 40.666H38.6667L36 0.666016Z" fill="black"/>
<path fill-rule="evenodd" clip-rule="evenodd" d="M68.0301 12.666L73 19.0279L40.6566 42.666L39 40.5454L68.0301 12.666Z" fill="black"/>
<path fill-rule="evenodd" clip-rule="evenodd" d="M80 45.978L78.2082 53.666L40 42.2287L40.5973 39.666L80 45.978Z" fill="black"/>
<path fill-rule="evenodd" clip-rule="evenodd" d="M61 75.1856L53.9154 78.666L39 41.8262L41.3615 40.666L61 75.1856Z" fill="black"/>
<path fill-rule="evenodd" clip-rule="evenodd" d="M26.0846 78.666L19 75.1856L38.6385 40.666L41 41.8262L26.0846 78.666Z" fill="black"/>
<path fill-rule="evenodd" clip-rule="evenodd" d="M1.79179 53.666L0 45.978L39.4027 39.666L40 42.2287L1.79179 53.666Z" fill="black"/>
<path fill-rule="evenodd" clip-rule="evenodd" d="M7 19.0279L11.9699 12.666L41 40.5454L39.3434 42.666L7 19.0279Z" fill="black"/>
</svg>
